<svg height="43" viewBox="0 0 141 43" width="141" xmlns="http://www.w3.org/2000/svg" xmlns:xlink="http://www.w3.org/1999/xlink"><mask id="a" fill="#fff"><path d="m0 .15808808h31.2520197v28.32204442h-31.2520197z" fill="#fff" fill-rule="evenodd"/></mask><g fill="none" fill-rule="evenodd"><g transform="translate(55 29)"><text fill="#2bcda6" font-family="HelveticaNeue, Helvetica Neue" font-size="9.24" letter-spacing=".577499974"><tspan x="4.62" y="9.66">EDUCATOR APP</tspan></text><rect fill-rule="nonzero" height="13.2" rx="2.64" stroke="#2bcda6" stroke-width=".66" width="85.14" x=".33" y=".33"/></g><g><path d="m17.0908575.15808808h-16.75448846c-.18558775 0-.33639238.15057119-.33639238.33639238 0 .1858212.15080463.33639239.33639238.33639239h16.75448846c7.4372831 0 13.488144 6.05086092 13.488144 13.48814405 0 7.4375165-6.0508609 13.4883775-13.488144 13.4883775h-4.255212c-.1855877 0-.3363924.1505712-.3363924.3363924 0 .1858211.1508047.3363923.3363924.3363923h4.255212c7.8084586 0 14.1611622-6.3527036 14.1611622-14.1611622 0-7.80845862-6.3527036-14.16092882-14.1611622-14.16092882" fill="#00e4ab" mask="url(#a)" transform="translate(0 .075402)"/><path d="m27.725549 14.3944659c0-5.87087583-4.7764917-10.64736756-10.6473675-10.64736756h-11.3241209c-.1858212 0-.33662583.1505712-.33662583.33639239s.15080463.33639238.33662583.33639238h11.3241209c5.4999337 0 9.9743493 4.47464901 9.9743493 9.97458279 0 5.5001672-4.4744156 9.9748162-9.9743493 9.9748162h-8.47143878c-.1858212 0-.33662583.1505712-.33662583.336159 0 .1858212.15080463.3363923.33662583.3363923h8.47143878c5.8708758 0 10.6473675-4.7762582 10.6473675-10.6473675" fill="#00e4ab"/><path d="m17.0908575 20.8321664h-4.4279603c.0242781.1085513.0378179.2208377.0378179.3363924 0 .1155546-.0135398.227841-.0378179.3363924h4.4279603c3.9209205 0 7.1106953-3.1897749 7.1106953-7.110462 0-3.9209205-3.1897748-7.11046188-7.1106953-7.11046188h-4.4279603c.0242781.10855132.0378179.22083775.0378179.33639238 0 .11555464-.0135398.22784106-.0378179.33639239h4.4279603c3.549745 0 6.4376771 2.88793211 6.4376771 6.43767711 0 3.5497451-2.8879321 6.4376772-6.4376771 6.4376772" fill="#2bcda6"/><path d="m11.1514892 8.49681407c-.4832284 0-.8763476-.3931192-.8763476-.87634768s.3931192-.87634768.8763476-.87634768c.4832285 0 .8763477.3931192.8763477.87634768s-.3931192.87634768-.8763477.87634768m1.5115481-1.21274006c-.1543063-.69286093-.7729322-1.21274007-1.5115481-1.21274007-.8541705 0-1.54936586.69472848-1.54936586 1.54913245 0 .85417053.69519536 1.54913245 1.54936586 1.54913245.7386159 0 1.3572418-.52011258 1.5115481-1.21274007.0240447-.10855132.0378178-.22083774.0378178-.33639238 0-.11578808-.0137731-.22784106-.0378178-.33639238" fill="#00e4ab"/><path d="m11.1514892 22.0449765c-.4832284 0-.8763476-.3931192-.8763476-.8763477s.3931192-.8763477.8763476-.8763477c.4832285 0 .8763477.3931192.8763477.8763477s-.3931192.8763477-.8763477.8763477m1.5115481-1.2127401c-.1543063-.6928609-.7729322-1.21274-1.5115481-1.21274-.8541705 0-1.54936586.6947284-1.54936586 1.5491324 0 .8541705.69519536 1.5491325 1.54936586 1.5491325.7386159 0 1.3572418-.5201126 1.5115481-1.2127401.0240447-.1085513.0378178-.2208378.0378178-.3363924 0-.1157881-.0137731-.2278411-.0378178-.3363924" fill="#00e4ab"/><g fill="#fff"><path d="m44.8608541 18.0566141c-1.0049751.9757947-2.4119404 1.4639255-4.2206622 1.4639255h-2.8024917v-10.25214738h2.8024917c1.8087218 0 3.2156871.48813079 4.2206622 1.46392548 1.0049752.9748609 1.507813 2.1962384 1.507813 3.6624984 0 1.4655596-.5028378 2.686937-1.507813 3.661798m-4.2031539-9.6038742h-3.7248278v11.883452h3.7248278c2.069245 0 3.6856092-.5644669 4.8507268-1.6934007 1.1646506-1.1298675 1.7466258-2.5452367 1.7466258-4.2479751 0-1.702505-.5819752-3.118808-1.7466258-4.2477418-1.1651176-1.12986751-2.7814818-1.6943344-4.8507268-1.6943344"/><path d="m50.9532914 20.3362152h.9048278v-11.88321851h-.9048278z"/><path d="m63.5178854 15.068698c-.2894702-.2248063-.5906126-.4019901-.903894-.5320182-.3137484-.1302616-.6769868-.2364785-1.0913493-.3195844l-2.6068659-.6207269c-.6860911-.1533725-1.209005-.3872831-1.5694421-.700798-.360904-.3125811-.541356-.7708311-.541356-1.37475 0-.7561241.2873693-1.3591092.8602401-1.80895527.5738046-.44891225 1.3098527-.67371854 2.2086109-.67371854.9342418 0 1.7081077.23647848 2.3234653.70920199.6146573.47295692.9986722 1.10582282 1.152745 1.89836422l.8863858-.2133675c-.2009951-.9571192-.682356-1.72584937-1.4454835-2.30572355-.7624271-.57894039-1.7235149-.86864404-2.8816291-.86864404-1.2059702 0-2.1847997.29810762-2.9355547.89572351-.7509884.59668212-1.1265993 1.39225828-1.1265993 2.38486098 0 1.4786324.9108974 2.4306158 2.7312914 2.8564172l2.7492666.6382351c.7811026.1771837 1.3455695.4197318 1.6943344.7269437.3487649.3074453.5229139.7801689.5229139 1.4186374 0 .7808692-.2957732 1.4013626-.8873195 1.8628808-.5906126.4612848-1.3892235.6914603-2.3939653.6914603-1.0645033 0-1.950889-.2633245-2.660091-.7892732-.7099023-.5259487-1.1174951-1.2444884-1.2244123-2.1546855l-.9573526.2124338c.1302616 1.0880811.632399 1.9483212 1.5071126 2.5804868.8756473.6330993 1.9632615.9489487 3.2637764.9489487 1.2769371 0 2.3024553-.307212 3.077255-.9218693.7747997-.6153576 1.1620828-1.4370794 1.1620828-2.4658658 0-.460351-.0800712-.8656093-.2395133-1.2143742-.1601423-.3489984-.3844817-.6361341-.6746523-.8602401"/><path d="m73.4127939 9.09125513c1.1228642 0 2.1047285.27196192 2.9439586.81635265.8394636.54369042 1.4310099 1.28300662 1.7737053 2.21701492l.8516026-.2663593c-.4017566-1.0997533-1.0997533-1.97446688-2.0928228-2.62530794-.9935364-.64990728-2.1525845-.97486092-3.4764437-.97486092-1.715111 0-3.1626954.59364735-4.3455547 1.78187586-1.1821589 1.1882284-1.7734718 2.6400149-1.7734718 4.3548923 0 1.7141772.5913129 3.1659636 1.7734718 4.3541921 1.1828593 1.1882285 2.6304437 1.7818758 4.3455547 1.7818758 1.3238592 0 2.4829073-.3279884 3.4764437-.9839652.9930695-.6562103 1.6910662-1.5458642 2.0928228-2.6694288l-.8693443-.2124338c-.3550679.9342417-.9487153 1.6726242-1.7828096 2.2163146-.8331606.5446242-1.8056871.8163526-2.9171126.8163526-1.4660265 0-2.7053792-.5112417-3.7157235-1.5339586-1.0110447-1.0227169-1.5162169-2.2795778-1.5162169-3.7689487 0-1.4900711.5051722-2.7459983 1.5162169-3.769649 1.0103443-1.02271685 2.249697-1.53395857 3.7157235-1.53395857"/><path d="m82.5776772 20.3362152h.9048278v-11.88321851h-.9048278z"/><path d="m95.045322 13.951273c-.5675016.508207-1.3180232.7624272-2.2522649.7624272h-4.1146788v-5.44530798h4.1146788c.9342417 0 1.6847633.25188576 2.2522649.75378978.5677351.5030711.8511358 1.1560132.8511358 1.9599933 0 .8039802-.2834007 1.4608908-.8511358 1.9690977m.6564437-4.51433442c-.7332467-.65597683-1.7027384-.98419868-2.9087086-.98419868h-5.0195066v11.883452h.9048278v-4.8061391h4.1146788c1.2059702 0 2.1754619-.3289222 2.9087086-.9851324.7327798-.6559769 1.0992865-1.5101474 1.0992865-2.5627451 0-1.0404586-.3665067-1.8890265-1.0992865-2.54523672"/><path d="m100.813483 8.45280993h-.9048282v11.88321857h8.0696822v-.8154189h-7.164854z"/><path d="m111.025828 20.3362152h.904828v-11.88321851h-.904828z"/><path d="m125.39095 18.8637457-8.371758-10.41088908h-.797678v11.88321858h.904828v-10.33992222l8.353083 10.33992222h.798611v-11.88321858h-.887086z"/><path d="m131.995096 16.2746682 3.015859-6.68676158 3.014925 6.68676158zm3.405477-7.82176489h-.797911l-5.409825 11.88321859h.958053l1.47233-3.2458014h6.77547l1.453654 3.2458014h.958053z"/></g></g></g></svg>