<?xml version="1.0" encoding="UTF-8"?>
<svg width="144px" height="144px" viewBox="0 0 144 144" version="1.1" xmlns="http://www.w3.org/2000/svg" xmlns:xlink="http://www.w3.org/1999/xlink">
    <!-- Generator: Sketch 52.4 (67378) - http://www.bohemiancoding.com/sketch -->
    <title>Group</title>
    <desc>Created with Sketch.</desc>
    <g id="Form-App" stroke="none" stroke-width="1" fill="none" fill-rule="evenodd" opacity="0.5">
        <g id="CV-list-empty" transform="translate(-564.000000, -310.000000)" fill="#D6D6D6">
            <g id="Group" transform="translate(564.421053, 309.421053)">
                <path d="M107.634833,117.992536 C101.902392,103.792344 88.0191388,93.7605742 71.7726316,93.7605742 C55.5261244,93.7605742 41.6359809,103.792344 35.9104306,117.992536 C22.461244,107.36134 13.7799043,90.9425837 13.7799043,72.5050718 C13.7799043,40.5288038 39.7963636,14.5192344 71.7726316,14.5192344 C103.7489,14.5192344 129.758469,40.5288038 129.758469,72.5050718 C129.758469,90.9425837 121.084019,107.36134 107.634833,117.992536 M71.7726316,0.739330144 C32.1967464,0.739330144 -4.40536496e-13,32.9360766 -4.40536496e-13,72.5050718 C-4.40536496e-13,112.080957 32.1967464,144.277703 71.7726316,144.277703 C111.348517,144.277703 143.538373,112.080957 143.538373,72.5050718 C143.538373,32.9360766 111.348517,0.739330144 71.7726316,0.739330144" id="Fill-1" opacity="0.9"></path>
                <path d="M71.7691866,38.8593684 C58.6782775,38.8593684 48.0608612,49.4767847 48.0608612,62.5676938 C48.0608612,75.6654928 58.6782775,86.2760191 71.7691866,86.2760191 C84.8600957,86.2760191 95.477512,75.6654928 95.477512,62.5676938 C95.477512,49.4767847 84.8600957,38.8593684 71.7691866,38.8593684" id="Fill-4"></path>
            </g>
        </g>
    </g>
</svg>