<?xml version="1.0" encoding="UTF-8"?>
<svg width="18px" height="18px" viewBox="0 0 18 18" version="1.1" xmlns="http://www.w3.org/2000/svg" xmlns:xlink="http://www.w3.org/1999/xlink">
    <!-- Generator: Sketch 52.4 (67378) - http://www.bohemiancoding.com/sketch -->
    <title>Group 10</title>
    <desc>Created with Sketch.</desc>
    <defs>
        <polygon id="path-1" points="0.00020877193 1.03550877 17.7539649 1.03550877 17.7539649 18.7894737 0.00020877193 18.7894737"></polygon>
    </defs>
    <g id="Form-App" stroke="none" stroke-width="1" fill="none" fill-rule="evenodd">
        <g id="Add-CV-grades" transform="translate(-1192.000000, -1055.000000)">
            <g id="Group-2" transform="translate(32.000000, 217.000000)">
                <g id="Group-10" transform="translate(1160.000000, 837.000000)">
                    <g id="Group-3" transform="translate(0.000000, 0.008142)">
                        <mask id="mask-2" fill="white">
                            <use xlink:href="#path-1"></use>
                        </mask>
                        <g id="Clip-2"></g>
                        <path d="M14.1486825,18.7894737 L3.60465614,18.7894737 C1.61714737,18.7894737 0.00020877193,17.1725351 0.00020877193,15.1839825 L0.00020877193,4.641 C0.00020877193,2.65349123 1.61714737,1.03550877 3.60465614,1.03550877 L7.52956842,1.03550877 C8.10577895,1.03550877 8.57342807,1.50315789 8.57342807,2.07936842 C8.57342807,2.65557895 8.10577895,3.12322807 7.52956842,3.12322807 L3.60465614,3.12322807 C2.76852456,3.12322807 2.08792807,3.80382456 2.08792807,4.641 L2.08792807,15.1839825 C2.08792807,16.0211579 2.76852456,16.7017544 3.60465614,16.7017544 L14.1486825,16.7017544 C14.9858579,16.7017544 15.6664544,16.0211579 15.6664544,15.1839825 L15.6664544,11.2183596 C15.6664544,10.6411053 16.1330596,10.1745 16.710314,10.1745 C17.2865246,10.1745 17.7541737,10.6411053 17.7541737,11.2183596 L17.7541737,15.1839825 C17.7541737,17.1725351 16.1361912,18.7894737 14.1486825,18.7894737" id="Fill-1" fill="#002590" mask="url(#mask-2)"></path>
                    </g>
                    <polygon id="Fill-4" fill="#002590" points="9.50841316 12.754086 6.04384298 9.28951579 11.8163868 3.48252456 15.2820009 6.9481386"></polygon>
                    <path d="M12.6822684,2.61674737 L13.3566018,1.94241404 C14.3127772,0.986238596 15.8639526,0.986238596 16.8211719,1.94241404 C17.7783912,2.89963333 17.7783912,4.45080877 16.8211719,5.40802807 L16.0967333,6.13246667" id="Fill-6" fill="#002590"></path>
                    <path d="M5.18307632,10.1490298 L4.77075175,13.747214 C4.74987456,13.9267579 4.90227807,14.0781175 5.08182193,14.0561965 L8.64869035,13.6146439" id="Fill-8" fill="#002590"></path>
                </g>
            </g>
        </g>
    </g>
</svg>