<?xml version="1.0" encoding="UTF-8"?>
<svg width="20px" height="20px" viewBox="0 0 20 20" version="1.1" xmlns="http://www.w3.org/2000/svg" xmlns:xlink="http://www.w3.org/1999/xlink">
    <!-- Generator: Sketch 52.6 (67491) - http://www.bohemiancoding.com/sketch -->
    <title>icons/key</title>
    <desc>Created with Sketch.</desc>
    <g stroke="none" stroke-width="1" fill="none" fill-rule="evenodd">
        <path d="M19.5,8.5 L9.775,8.5 C9.125,6.475 7.25,5 5,5 C2.25,5 0,7.25 0,10 C0,12.75 2.25,15 5,15 C7.25,15 9.125,13.525 9.775,11.5 L13,11.5 L13,14 C13,14.275 13.225,14.5 13.5,14.5 L14.5,14.5 C14.775,14.5 15,14.275 15,14 L15,11.5 L16,11.5 L16,14 C16,14.275 16.225,14.5 16.5,14.5 L17.5,14.5 C17.775,14.5 18,14.275 18,14 L18,11.5 L19.5,11.5 C19.775,11.5 20,11.275 20,11 L20,9 C20,8.725 19.775,8.5 19.5,8.5 Z M5,12.5 C3.625,12.5 2.5,11.375 2.5,10 C2.5,8.625 3.625,7.5 5,7.5 C6.375,7.5 7.5,8.625 7.5,10 C7.5,11.375 6.375,12.5 5,12.5 Z" fill="#C9C9C9" fill-rule="nonzero" transform="translate(10.000000, 10.000000) scale(-1, 1) translate(-10.000000, -10.000000) "></path>
    </g>
</svg>