<?xml version="1.0" encoding="UTF-8"?>
<svg width="20px" height="20px" viewBox="0 0 20 20" version="1.1" xmlns="http://www.w3.org/2000/svg" xmlns:xlink="http://www.w3.org/1999/xlink">
    <!-- Generator: Sketch 52.6 (67491) - http://www.bohemiancoding.com/sketch -->
    <title>icons/globe</title>
    <desc>Created with Sketch.</desc>
    <g stroke="none" stroke-width="1" fill="none" fill-rule="evenodd">
        <path d="M10.47,0 L10.47,5.94 C12.0841291,5.90679524 13.6819314,5.60952969 15.2,5.06 C14.25,2.25 12.5,0.28 10.47,0 Z" fill="#C9C9C9"></path>
        <path d="M10.47,14 L10.47,20 C12.47,19.71 14.25,17.75 15.2,14.93 C13.6834496,14.3682042 12.0863549,14.0541877 10.47,14 Z" fill="#C9C9C9"></path>
        <path d="M10.47,6.94 L10.47,9.46 L16,9.46 C15.956878,8.29082401 15.7824493,7.13020195 15.48,6 C13.8722609,6.58380977 12.1800182,6.90131638 10.47,6.94 Z" fill="#C9C9C9"></path>
        <path d="M10.47,10.46 L10.47,13 C12.1761342,13.0446531 13.8641355,13.3619974 15.47,13.94 C15.7766451,12.8035532 15.9544304,11.6362083 16,10.46 L10.47,10.46 Z" fill="#C9C9C9"></path>
        <path d="M9.47,5.94 L9.47,0 C7.44,0.28 5.7,2.25 4.75,5.06 C6.26485343,5.60863213 7.85921931,5.90588679 9.47,5.94 Z" fill="#C9C9C9"></path>
        <path d="M9.47,9.46 L9.47,6.94 C7.76399416,6.90255797 6.07537378,6.58847458 4.47,6.01 C4.19007335,7.13981914 4.03250015,8.29647348 4,9.46 L9.47,9.46 Z" fill="#C9C9C9"></path>
        <path d="M9.47,13 L9.47,10.46 L4,10.46 C4.03145655,11.6242509 4.19244838,12.7813797 4.48,13.91 C6.08405531,13.3421016 7.76873993,13.0348745 9.47,13 Z" fill="#C9C9C9"></path>
        <path d="M9.47,19.92 L9.47,14 C7.8597303,14.039032 6.26614927,14.3361403 4.75,14.88 C5.7,17.67 7.44,19.63 9.47,19.92 Z" fill="#C9C9C9"></path>
        <path d="M13.74,0.7 C14.817088,1.84090648 15.626671,3.20729135 16.11,4.7 C16.6983089,4.42850911 17.2549865,4.0931612 17.77,3.7 C16.7038494,2.37334803 15.3167399,1.34076035 13.74,0.7 Z" fill="#C9C9C9"></path>
        <path d="M16.11,15.23 C15.6254483,16.7221564 14.8160163,18.0882863 13.74,19.23 C15.3058557,18.5848443 16.6822109,17.5525778 17.74,16.23 C17.2319168,15.8423514 16.6857821,15.5072994 16.11,15.23 Z" fill="#C9C9C9"></path>
        <path d="M17,10.46 C16.9664998,11.7537337 16.7819144,13.0391195 16.45,14.29 C17.1315746,14.6011833 17.7784767,14.9832912 18.38,15.43 C19.3570989,13.9387101 19.9133465,12.2112333 19.99,10.43 L17,10.46 Z" fill="#C9C9C9"></path>
        <path d="M16.41,5.62 C16.7553925,6.87268679 16.9533987,8.16140517 17,9.46 L20,9.46 C19.9248279,7.67850164 19.3684567,5.95064075 18.39,4.46 C17.7762606,4.92070487 17.1119655,5.30988787 16.41,5.62 Z" fill="#C9C9C9"></path>
        <path d="M6.21,19.22 C5.13091372,18.0788576 4.31809782,16.7127805 3.83,15.22 C3.24816511,15.4977287 2.69543726,15.8327152 2.18,16.22 C3.24615062,17.546652 4.63326007,18.5792397 6.21,19.22 Z" fill="#C9C9C9"></path>
        <path d="M3.54,14.29 C3.21146177,13.038719 3.03023335,11.7533396 3,10.46 L0,10.46 C0.076653533,12.2412333 0.632901066,13.9687101 1.61,15.46 C2.21016134,15.0028657 2.85711292,14.6106722 3.54,14.29 Z" fill="#C9C9C9"></path>
        <path d="M3.83,4.68 C4.31924813,3.19365486 5.13210471,1.83434006 6.21,0.7 C4.64414433,1.34515569 3.26778905,2.37742215 2.21,3.7 C2.71433213,4.08228878 3.25728967,4.41074457 3.83,4.68 Z" fill="#C9C9C9"></path>
        <path d="M3,9.46 C3.03354262,8.16298069 3.21812089,6.87428883 3.55,5.62 C2.86331068,5.31667441 2.21261701,4.93766212 1.61,4.49 C0.636672784,5.97198589 0.0805230754,7.68879586 0,9.46 L3,9.46 Z" fill="#C9C9C9"></path>
    </g>
</svg>