<?xml version="1.0" encoding="UTF-8"?>
<svg width="20px" height="20px" viewBox="0 0 20 20" version="1.1" xmlns="http://www.w3.org/2000/svg" xmlns:xlink="http://www.w3.org/1999/xlink">
    <!-- Generator: Sketch 52.6 (67491) - http://www.bohemiancoding.com/sketch -->
    <title>icons/org</title>
    <desc>Created with Sketch.</desc>
    <g stroke="none" stroke-width="1" fill="none" fill-rule="evenodd">
        <path d="M19.5809829,7.16323271 L15.899081,8.36735624 L10.6362341,10.0888003 C10.2216792,10.220127 9.7789419,10.220127 9.36438703,10.0888003 L3.54243653,8.18811309 L0.419638282,7.16323271 C-0.139465334,6.98398956 -0.139465334,6.21288908 0.419638282,6.02477251 L9.36438703,3.09831753 C9.7789419,2.96699087 10.2216792,2.96699087 10.6362341,3.09831753 L16.9791055,5.17824793 L19.5809829,6.02477251 C20.1400865,6.21288908 20.1400865,6.98398956 19.5809829,7.16323271" fill="#C9C9C9"></path>
        <path d="M16,10 L16,14.3240191 C16,15.5476642 13.1411918,17 10,17 C6.85880818,17 4,15.7162592 4,14 L4,10 L9,11.7713789 C10,12 10,12 11,11.7713789 L16,10 Z" fill="#C9C9C9"></path>
    </g>
</svg>